<svg xmlns="http://www.w3.org/2000/svg" viewBox="0 0 128.27 34.37">
  <defs>
    <style>
    .cls-1{fill:#fff}
    .cls-5,.cls-6{fill:#e2e1e6}
    .cls-5{fill-rule:evenodd}
    .cls-4{fill:none;stroke:#e2e1e6;stroke-miterlimit:10;stroke-width:.92px}
    </style>
  </defs>
  <g  >
    <path class="cls-1" d="M10.36 25.62l-2.42 8.75H0L10.36.29h10.11l10.62 34.08h-8.34l-2.63-8.75zM19 19.86l-2.13-7.23c-.6-2-1.21-4.55-1.71-6.57h-.11c-.5 2-1 4.6-1.56 6.57l-2 7.23z"/>
    <path class="cls-1" d="M29.07.75A62.31 62.31 0 0 1 39.48 0c4.75 0 8.14 1 10.42 2.77a9.83 9.83 0 0 1 3.64 7.89 10.62 10.62 0 0 1-3.14 8.08c-2.63 2.43-6.52 3.59-11.07 3.59a13.4 13.4 0 0 1-2.63-.2v12.24h-7.63zm7.63 15.47a11.66 11.66 0 0 0 2.58.2c4.1 0 6.62-2.07 6.62-5.51 0-3.14-2.17-5-6.07-5a13.17 13.17 0 0 0-3.13.26z"/>
    <path class="cls-6" d="M61.83 0a6.86 6.86 0 1 0 6.86 6.86A6.86 6.86 0 0 0 61.83 0zm0 12.38a5.53 5.53 0 1 1 5.53-5.52 5.52 5.52 0 0 1-5.53 5.52z"/>
    <path class="cls-6" d="M61.58 3.63a3 3 0 1 0 3.28 2.77 3 3 0 0 0-3.28-2.77z"/>
    <path class="cls-4" d="M108.62 25.17l-5.89-2.12M103.27 12.84l7.64-1.92"/>
    <path class="cls-5" d="M86.67 0a17.17 17.17 0 1 0 17.16 17.2A17.16 17.16 0 0 0 86.67 0zm0 27.25A10.09 10.09 0 1 1 96.76 17.2a10.09 10.09 0 0 1-10.1 10.09zM128 6.86a8.8 8.8 0 1 0-6.53 10.59A8.79 8.79 0 0 0 128 6.86zm-7.14 6.73a4.91 4.91 0 1 1 3.28-6.11 4.91 4.91 0 0 1-3.25 6.11zM121.73 25.12a6.9 6.9 0 1 0-4.37 8.72 6.9 6.9 0 0 0 4.37-8.72zm-5.35 5.78a3.8 3.8 0 1 1 2.41-4.81 3.79 3.79 0 0 1-2.41 4.81z"/>
    <path class="cls-1" d="M22.73 30.46H36.7v3.9H22.73z"/>
    <path class="cls-6" d="M58 14.63v19.74h7.69V14.63a7.82 7.82 0 0 1-7.69 0z"/>
  </g>
</svg>