<?xml version="1.0" encoding="utf-8"?>
<!-- Generator: Adobe Illustrator 19.1.0, SVG Export Plug-In . SVG Version: 6.00 Build 0)  -->
<svg version="1.1" id="Layer_1" xmlns="http://www.w3.org/2000/svg" xmlns:xlink="http://www.w3.org/1999/xlink" x="0px" y="0px"
	 viewBox="0 0 478 58" style="enable-background:new 0 0 478 58;" xml:space="preserve" xmlns:ampsvg="http://media.amplience.com/2016/svg-extensions" width="300px" height="36px">
<style type="text/css">
	.st0{fill:#FFFFFF;}
	.st1{fill:#FFFFFF;}
</style>
<g>
	<polygon class="st1" points="14.9,13.4 1.9,18.1 1.9,23.7 8.7,21.3 8.7,49.6 1.9,49.6 1.9,55.1 21.7,55.1 21.7,49.6 14.9,49.6 	"/>
	<path class="st1" d="M60,26c4-2.3,6.2-6.3,6.2-11c0-7.1-6.3-13.1-13.7-13.1c-8.3,0-14.6,5.9-14.6,13.6c0,4.7,2.4,8.6,6.5,10.8
		c-5.6,2.4-9.2,7.8-9.2,13.9c0,8.9,7.5,15.9,17.1,15.9c9.4,0,17.1-7.3,17.1-16.4C69.4,33.9,65.6,28.4,60,26z M43.8,15.6
		c0-4.5,3.7-8.2,8.3-8.2c4.6,0,8.3,3.7,8.3,8.3c0,4.5-3.7,8.2-8.4,8.2C47.5,23.9,43.8,20.1,43.8,15.6z M52.2,50.5
		c-6.1,0-10.8-4.7-10.8-10.6c0-5.7,4.9-10.5,10.7-10.5c6,0,10.8,4.7,10.8,10.5C62.9,45.8,58.1,50.5,52.2,50.5z"/>
	<path class="st1" d="M93,12.3c-5.1,0-10.2,2.2-13.8,6.1c-3.4,3.5-4.8,7.4-4.8,13.1v5.4c0,5.9,1.7,10.2,5.5,13.8
		c3.6,3.5,8.3,5.4,13.2,5.4c5.2,0,10.2-2.2,13.9-6c3.3-3.5,4.7-7.5,4.7-13.2v-5.4c0-6-1.6-10.2-5.5-13.8
		C102.7,14.3,97.9,12.3,93,12.3z M105.4,36.9c0,3.3-0.4,5.9-2.2,8.5c-2.2,3.1-6.1,5-10.1,5c-3.9,0-7.6-1.8-9.8-4.8
		c-2.1-2.6-2.5-5.4-2.5-8.7v-5.3c0-3.2,0.4-5.8,2.3-8.4c2.2-3.1,6.1-5,10-5c4,0,7.7,1.8,9.9,4.8c2,2.6,2.4,5.2,2.4,8.7V36.9z"/>
	<path class="st1" d="M135.1,12.3c-5.2,0-10.2,2.2-13.8,6.1c-3.4,3.5-4.8,7.4-4.8,13.1v5.4c0,5.9,1.7,10.2,5.5,13.8
		c3.6,3.5,8.3,5.4,13.2,5.4c5.2,0,10.2-2.2,13.9-6c3.3-3.5,4.7-7.5,4.7-13.2v-5.4c0-6-1.6-10.2-5.5-13.8
		C144.8,14.3,140,12.3,135.1,12.3z M147.5,36.9c0,3.3-0.4,5.9-2.2,8.5c-2.2,3.1-6.1,5-10.1,5c-3.9,0-7.6-1.8-9.8-4.8
		c-2.1-2.6-2.5-5.4-2.5-8.7v-5.3c0-3.2,0.4-5.8,2.3-8.4c2.2-3.1,6.1-5,10.1-5c4,0,7.7,1.8,9.9,4.8c2,2.6,2.4,5.2,2.4,8.7V36.9z"/>
	<path class="st0" d="M200.5,42.7c-2.1,4.6-7.1,7.6-12.5,7.6c-8.3,0-14.8-6.2-14.8-14.1c0-8.1,6.3-14.4,14.4-14.4
		c5.1,0,9.9,2.7,12.6,6.9l0.2,0.3h5.4V16.7h-5.6v4.5c-3.5-3.4-7.9-5.1-12.8-5.1c-5.4,0-10.3,2.1-14.3,6.1c-3.7,3.7-5.7,8.8-5.7,14.1
		c0,10.8,9.3,19.8,20.3,19.8c8.8,0,16.5-5.2,19.4-13l0.3-0.7h-6.5L200.5,42.7z"/>
	<path class="st0" d="M230.4,16c-11.4,0-20.6,9-20.6,20.1c0,11,9.2,20,20.5,20c11.3,0,20.5-9.1,20.5-20.3
		C250.8,24.9,241.7,16,230.4,16z M230.3,50.4c-8,0-14.6-6.5-14.6-14.4c0-7.9,6.6-14.3,14.7-14.3c8,0,14.5,6.4,14.5,14.3
		C244.9,44,238.3,50.4,230.3,50.4z"/>
	<path class="st0" d="M291.8,33.5c0-5-1.4-8.4-2.2-10c-2.4-4.9-8.8-7.5-13.6-7.5c-5,0-9.5,2.2-12.2,5.8v-5.2h-12.3v5.5h6.4v27.4
		h-6.4v5.5h18.7v-5.5h-6.4v-15c0-3.1,0-6.4,2.4-9.2c2-2.3,5.3-3.7,8.5-3.7c2.1,0,7.2,0.4,9.4,4.3c1.6,2.7,1.7,5.6,1.7,9.2v14.4h-6.4
		v5.5h18.7v-5.5h-6.4V33.5z"/>
	<path class="st0" d="M308.3,39.5l0-17.3h8.4v-5.5h-8.4V3.2h-5.9v13.5h-7.3v5.5h7.3v18.4c0,10.4,4,15.5,12.2,15.5h2.7v-5.6h-2.7
		C308.3,50.4,308.3,44.9,308.3,39.5z"/>
	<path class="st0" d="M354.2,23.6c-3.6-5-8.7-7.5-15-7.5c-7.1,0-13.8,3.6-16.9,9.1l-0.1,0.2c-1.6,2.7-3.1,5.3-3.1,10.7
		c-0.1,3.9,1,7.6,3.1,11c3.4,5.6,10,9,17.1,9c6.1,0,11.5-2.7,15-7.4v6.4h11v-5.5h-5.1V22.2h5.1v-5.5h-11V23.6z M339.4,50.5
		c-7.9,0-14.6-6.6-14.6-14.3c0-7.9,6.6-14.4,14.8-14.4c8,0,14.6,6.4,14.6,14.3C354.3,44.1,347.8,50.5,339.4,50.5z"/>
	<path class="st0" d="M399.6,42.7c-2.1,4.6-7.1,7.6-12.5,7.6c-8.3,0-14.8-6.2-14.8-14.1c0-8.1,6.3-14.4,14.4-14.4
		c5.1,0,9.9,2.7,12.6,6.9l0.2,0.3h5.4V16.7h-5.6v4.5c-3.5-3.4-7.8-5.1-12.8-5.1c-5.4,0-10.3,2.1-14.3,6.1c-3.7,3.7-5.7,8.8-5.7,14.1
		c0,10.8,9.3,19.8,20.3,19.8c8.8,0,16.5-5.2,19.4-13l0.3-0.7h-6.5L399.6,42.7z"/>
	<path class="st0" d="M422,39.5l0-17.3h8.4v-5.5H422V3.2h-5.9v13.5h-7.3v5.5h7.3v18.4c0,10.4,4,15.5,12.2,15.5h2.7v-5.6h-2.7
		C422,50.4,422,44.9,422,39.5z"/>
	<path class="st0" d="M458.3,35.7c-2.8-1.6-6-2.3-8.8-2.8c-4.2-0.9-8-2-8-6.1c0-3.8,3.5-5.8,6.9-5.8c1.8,0,3.6,0.6,5,1.6
		c1.4,1,2.2,2.5,2.2,4.1l0,0.5h5V16.7h-5v2.4c-1.9-2-4.6-3.1-8.1-3.1c-3.3,0-8,1.1-10.5,4.3c-1.5,1.9-2.1,3.9-2.1,6.7
		c0,3.4,1.7,6.5,4.8,8.4c2.5,1.5,5.4,2.1,8.2,2.7l0.6,0.1c4.1,0.8,8.3,1.7,8.3,6.4c0,4.1-3.9,6.6-7.7,6.6c-4.9,0-8.7-3.1-9.2-7.4
		l0-0.5h-5v11.8h5v-3.3c2.3,2.8,5.7,4.3,10,4.3c5,0,9.8-2.4,11.6-5.8c0.9-1.6,1.7-3.5,1.7-6C463.3,40.7,461.5,37.5,458.3,35.7z"/>
	<path class="st0" d="M473.5,12.5c0-1-0.8-1.5-2.4-1.5h-2.2v5.7h1.2v-2.4h0.9l1.1,2.4h1.4l-1.3-2.6
		C473.1,13.8,473.5,13.3,473.5,12.5z M470.9,13.5h-0.8v-1.8h0.8c0.9,0,1.4,0.3,1.4,0.9C472.3,13.2,471.8,13.5,470.9,13.5z"/>
	<path class="st0" d="M474.6,10.3c-1-1-2.3-1.5-3.7-1.5c-1.4,0-2.6,0.5-3.6,1.4c-1,1-1.5,2.3-1.5,3.6c0,1.3,0.5,2.6,1.5,3.5
		c1,1,2.3,1.5,3.6,1.5c1.3,0,2.6-0.5,3.6-1.5c1-0.9,1.5-2.2,1.5-3.6C476.1,12.5,475.6,11.3,474.6,10.3z M474.1,16.9
		c-0.9,0.8-2,1.3-3.2,1.3c-1.1,0-2.2-0.5-3-1.3c-0.8-0.8-1.3-1.9-1.3-3c0-1.1,0.5-2.2,1.3-3.1c0.8-0.8,1.9-1.2,3.1-1.2
		c1.2,0,2.3,0.4,3.1,1.3c0.8,0.8,1.2,1.9,1.2,3.1C475.4,15,474.9,16.1,474.1,16.9z"/>
</g>
</svg>
